<svg width="433" height="61" viewBox="0 0 433 61" fill="none" xmlns="http://www.w3.org/2000/svg">
<mask id="path-1-inside-1_31_1232" fill="white">
<path d="M432.143 1.023C366.956 39.3906 292.874 60.0552 217.239 60.9684C141.605 61.8815 67.0456 43.0115 0.951645 6.22895L1.37373 5.4705C67.3355 42.1795 141.746 61.0118 217.229 60.1005C292.712 59.1891 366.646 38.5658 431.702 0.274975L432.143 1.023Z"/>
</mask>
<path d="M432.143 1.023C366.956 39.3906 292.874 60.0552 217.239 60.9684C141.605 61.8815 67.0456 43.0115 0.951645 6.22895L1.37373 5.4705C67.3355 42.1795 141.746 61.0118 217.229 60.1005C292.712 59.1891 366.646 38.5658 431.702 0.274975L432.143 1.023Z" stroke="#A3887B" stroke-width="2" mask="url(#path-1-inside-1_31_1232)"/>
</svg>
