<svg width="108" height="860" viewBox="0 0 108 860" fill="none" xmlns="http://www.w3.org/2000/svg">
<mask id="path-1-inside-1_11_714" fill="white">
<path fill-rule="evenodd" clip-rule="evenodd" d="M2.57066 860C68.6405 741.343 108 592.106 108 430C108 267.894 68.6405 118.657 2.57065 0L0 0V860H2.57066Z"/>
</mask>
<path d="M2.57066 860V861H3.15841L3.44435 860.486L2.57066 860ZM2.57065 0L3.44434 -0.486482L3.15841 -1L2.57065 -1L2.57065 0ZM0 0L0 -1L-1 -1V0H0ZM0 860H-1V861H0V860ZM107 430C107 591.949 67.678 741.016 1.69696 859.514L3.44435 860.486C69.603 741.67 109 592.264 109 430H107ZM1.69696 0.486482C67.678 118.984 107 268.051 107 430H109C109 267.736 69.603 118.33 3.44434 -0.486482L1.69696 0.486482ZM0 1L2.57065 1L2.57065 -1L0 -1L0 1ZM1 860V0H-1V860H1ZM2.57066 859H0V861H2.57066V859Z" fill="#DACFCA" mask="url(#path-1-inside-1_11_714)"/>
<path d="M52.5 440.5L42 430L52.5 419.5" stroke="#DACFCA" stroke-width="2" stroke-linecap="round" stroke-linejoin="round"/>
</svg>
