<svg width="199" height="44" viewBox="0 0 199 44" fill="none" xmlns="http://www.w3.org/2000/svg">
<path d="M4.41 18H1.422V5.13H4.41V18ZM13.248 18H9.378L3.978 11.322H4.248L8.946 5.13H12.546L7.488 11.592V11.052L13.248 18ZM13.8935 18V15.57H14.4515C14.7395 15.57 14.9435 15.51 15.0635 15.39C15.1955 15.258 15.2735 15.054 15.2975 14.778L15.8555 8.82H23.0555V18H20.1215V10.656L20.6615 11.178H17.9255L18.4655 10.674L17.9975 15.426C17.9015 16.41 17.6135 17.088 17.1335 17.46C16.6655 17.82 15.9515 18 14.9915 18H13.8935ZM31.7475 8.82H34.6815L30.7755 18.72C30.4035 19.644 29.9115 20.334 29.2995 20.79C28.6995 21.258 27.9495 21.492 27.0495 21.492H25.7535V19.08H26.8335C27.2535 19.08 27.5595 19.008 27.7515 18.864C27.9435 18.732 28.0875 18.492 28.1835 18.144L28.2195 18.018L24.5475 8.82H27.5535L30.0735 16.146H29.2095L31.7475 8.82ZM40.6672 18.288C39.1432 18.288 37.9552 17.73 37.1032 16.614C36.2632 15.486 35.8432 13.908 35.8432 11.88C35.8432 9.828 36.2152 8.292 36.9592 7.272C37.7032 6.24 38.8912 5.634 40.5232 5.454L44.1952 5.04L44.4652 7.524L40.9192 7.974C40.3432 8.046 39.8812 8.202 39.5332 8.442C39.1972 8.67 38.9452 9.024 38.7772 9.504C38.6212 9.984 38.5252 10.638 38.4892 11.466L38.0032 12.042C38.1592 11.49 38.3932 11.028 38.7052 10.656C39.0172 10.284 39.4012 10.002 39.8572 9.81C40.3132 9.606 40.8292 9.504 41.4052 9.504C42.1972 9.504 42.8812 9.672 43.4572 10.008C44.0332 10.344 44.4772 10.818 44.7892 11.43C45.1132 12.042 45.2752 12.756 45.2752 13.572C45.2752 14.508 45.0832 15.33 44.6992 16.038C44.3152 16.746 43.7752 17.298 43.0792 17.694C42.3952 18.09 41.5912 18.288 40.6672 18.288ZM40.5052 15.84C41.0692 15.84 41.5012 15.666 41.8012 15.318C42.1012 14.958 42.2512 14.46 42.2512 13.824C42.2512 13.188 42.1072 12.708 41.8192 12.384C41.5312 12.06 41.1112 11.898 40.5592 11.898C40.0912 11.898 39.7012 12.03 39.3892 12.294C39.0772 12.546 38.8552 12.924 38.7232 13.428L38.5792 12.942L38.8312 12.6C38.8312 12.924 38.8432 13.278 38.8672 13.662C38.8912 14.034 38.9512 14.388 39.0472 14.724C39.1432 15.048 39.3052 15.318 39.5332 15.534C39.7732 15.738 40.0972 15.84 40.5052 15.84ZM47.136 18V8.82H50.07V18H47.136ZM52.842 18V8.82H55.776V18H52.842ZM48.45 14.364V12.006H54.588V14.364H48.45ZM58.052 18V8.82H60.986V16.218L60.302 15.732H61.976C62.336 15.732 62.6 15.648 62.768 15.48C62.948 15.3 63.038 15.036 63.038 14.688C63.038 14.34 62.948 14.082 62.768 13.914C62.6 13.746 62.336 13.662 61.976 13.662H59.672V11.394H62.282C63.386 11.394 64.268 11.688 64.928 12.276C65.6 12.852 65.936 13.62 65.936 14.58C65.936 15.288 65.786 15.9 65.486 16.416C65.198 16.92 64.784 17.31 64.244 17.586C63.704 17.862 63.05 18 62.282 18H58.052ZM66.728 18V8.82H69.662V18H66.728ZM71.9387 18V8.82H74.6927V14.058L74.5667 14.022L77.9687 8.82H80.5787V18H77.8247V12.726L77.9507 12.762L74.5307 18H71.9387ZM76.3667 7.38C75.4547 7.38 74.7047 7.152 74.1167 6.696C73.5287 6.24 73.1507 5.52 72.9827 4.536H75.2507C75.3107 4.992 75.4367 5.316 75.6287 5.508C75.8207 5.688 76.0667 5.778 76.3667 5.778C76.6907 5.778 76.9427 5.688 77.1227 5.508C77.3147 5.316 77.4347 4.992 77.4827 4.536H79.7687C79.6127 5.52 79.2347 6.24 78.6347 6.696C78.0467 7.152 77.2907 7.38 76.3667 7.38ZM86.1237 20.592V15.642H86.8617C87.1017 15.642 87.2877 15.6 87.4197 15.516C87.5637 15.432 87.6717 15.264 87.7437 15.012C87.8277 14.748 87.8877 14.37 87.9237 13.878L88.3737 8.82H95.5377V16.38H92.6937V10.692L93.1437 11.142H90.5157L91.0017 10.692L90.6777 14.112C90.5937 14.988 90.3357 15.606 89.9037 15.966L89.7597 15.642H97.0317V20.592H94.2777V17.55L94.7277 18H88.4277L88.8777 17.55V20.592H86.1237ZM102.7 18.288C101.728 18.288 100.87 18.084 100.126 17.676C99.3944 17.256 98.8184 16.68 98.3984 15.948C97.9904 15.204 97.7864 14.358 97.7864 13.41C97.7864 12.45 97.9904 11.604 98.3984 10.872C98.8184 10.14 99.3944 9.57 100.126 9.162C100.87 8.742 101.728 8.532 102.7 8.532C103.684 8.532 104.542 8.742 105.274 9.162C106.018 9.57 106.594 10.14 107.002 10.872C107.422 11.604 107.632 12.45 107.632 13.41C107.632 14.358 107.422 15.204 107.002 15.948C106.594 16.68 106.018 17.256 105.274 17.676C104.542 18.084 103.684 18.288 102.7 18.288ZM102.7 15.84C103.084 15.84 103.414 15.738 103.69 15.534C103.978 15.318 104.2 15.03 104.356 14.67C104.524 14.298 104.608 13.878 104.608 13.41C104.608 12.93 104.524 12.51 104.356 12.15C104.2 11.79 103.978 11.508 103.69 11.304C103.414 11.088 103.084 10.98 102.7 10.98C102.328 10.98 101.998 11.088 101.71 11.304C101.434 11.508 101.212 11.79 101.044 12.15C100.888 12.51 100.81 12.93 100.81 13.41C100.81 13.878 100.888 14.298 101.044 14.67C101.212 15.03 101.434 15.318 101.71 15.534C101.998 15.738 102.328 15.84 102.7 15.84ZM109.486 18V8.82H112.384L115.192 14.67H114.472L117.208 8.82H120.178V18H117.64V12.222L117.892 12.294L115.66 16.974H113.914L111.736 12.42L111.916 12.348V18H109.486ZM2.916 39.424L0.342 35.41L2.916 31.396H6.21L3.528 35.41L6.21 39.424H2.916ZM7.488 39.424L4.914 35.41L7.488 31.396H10.782L8.1 35.41L10.782 39.424H7.488ZM12.5665 40V27.13H15.5545V40H12.5665ZM23.2405 40.288C22.3285 40.288 21.4945 40.126 20.7385 39.802C19.9945 39.478 19.3465 39.022 18.7945 38.434C18.2545 37.834 17.8345 37.12 17.5345 36.292C17.2465 35.464 17.1025 34.552 17.1025 33.556C17.1025 32.56 17.2465 31.654 17.5345 30.838C17.8345 30.01 18.2545 29.302 18.7945 28.714C19.3465 28.114 19.9945 27.652 20.7385 27.328C21.4945 27.004 22.3285 26.842 23.2405 26.842C24.1525 26.842 24.9865 27.004 25.7425 27.328C26.4985 27.652 27.1465 28.114 27.6865 28.714C28.2385 29.302 28.6585 30.01 28.9465 30.838C29.2465 31.654 29.3965 32.56 29.3965 33.556C29.3965 34.552 29.2465 35.464 28.9465 36.292C28.6585 37.12 28.2385 37.834 27.6865 38.434C27.1465 39.022 26.4985 39.478 25.7425 39.802C24.9865 40.126 24.1525 40.288 23.2405 40.288ZM23.2405 37.606C23.8525 37.606 24.3865 37.438 24.8425 37.102C25.3105 36.766 25.6705 36.298 25.9225 35.698C26.1865 35.086 26.3185 34.372 26.3185 33.556C26.3185 32.74 26.1865 32.032 25.9225 31.432C25.6705 30.82 25.3105 30.352 24.8425 30.028C24.3865 29.692 23.8525 29.524 23.2405 29.524C22.6405 29.524 22.1065 29.692 21.6385 30.028C21.1825 30.364 20.8225 30.832 20.5585 31.432C20.3065 32.032 20.1805 32.74 20.1805 33.556C20.1805 34.372 20.3065 35.086 20.5585 35.698C20.8225 36.298 21.1825 36.766 21.6385 37.102C22.1065 37.438 22.6405 37.606 23.2405 37.606ZM14.1145 34.708V32.152H19.1005V34.708H14.1145ZM30.36 40L33.96 34.996V35.698L30.504 30.82H33.726L36.75 35.248H36.93L33.708 40H30.36ZM36.444 40V30.82H39.288V40H36.444ZM42.024 40L38.802 35.248H38.982L42.006 30.82H45.228L41.772 35.698V34.996L45.372 40H42.024ZM46.6086 40V30.82H49.5426V40H46.6086ZM52.3146 40V30.82H55.2486V40H52.3146ZM47.9226 36.364V34.006H54.0606V36.364H47.9226ZM65.6786 40H63.1406V38.11L62.9786 37.966V34.492C62.9786 33.928 62.8166 33.496 62.4926 33.196C62.1686 32.896 61.7006 32.746 61.0886 32.746C60.2846 32.746 59.5166 33.046 58.7846 33.646L57.3266 31.9C58.4786 30.988 59.8286 30.532 61.3766 30.532C62.2526 30.532 63.0086 30.694 63.6446 31.018C64.2926 31.33 64.7906 31.78 65.1386 32.368C65.4986 32.944 65.6786 33.634 65.6786 34.438V40ZM60.4226 40.288C59.7386 40.288 59.1446 40.162 58.6406 39.91C58.1366 39.658 57.7406 39.304 57.4526 38.848C57.1766 38.392 57.0386 37.858 57.0386 37.246C57.0386 36.298 57.4226 35.566 58.1906 35.05C58.9586 34.522 60.0326 34.258 61.4126 34.258H63.1586V36.004H61.5746C61.0706 36.004 60.6686 36.106 60.3686 36.31C60.0806 36.514 59.9366 36.79 59.9366 37.138C59.9366 37.438 60.0506 37.69 60.2786 37.894C60.5186 38.086 60.8246 38.182 61.1966 38.182C61.5446 38.182 61.8626 38.098 62.1506 37.93C62.4386 37.762 62.6726 37.534 62.8526 37.246C63.0446 36.946 63.1526 36.61 63.1766 36.238L63.8426 36.544C63.8426 37.3 63.6986 37.96 63.4106 38.524C63.1346 39.076 62.7386 39.508 62.2226 39.82C61.7186 40.132 61.1186 40.288 60.4226 40.288ZM67.1586 40L69.8766 36.22H72.7386L70.2366 40H67.1586ZM73.1166 40V32.26L73.7466 32.944H71.2806C70.9566 32.944 70.6986 33.034 70.5066 33.214C70.3266 33.382 70.2366 33.628 70.2366 33.952C70.2366 34.288 70.3326 34.54 70.5246 34.708C70.7286 34.864 70.9926 34.942 71.3166 34.942H74.0166V36.976H70.8306C69.7746 36.976 68.9346 36.694 68.3106 36.13C67.6866 35.554 67.3746 34.804 67.3746 33.88C67.3746 33.28 67.5246 32.752 67.8246 32.296C68.1246 31.828 68.5386 31.468 69.0666 31.216C69.6066 30.952 70.2306 30.82 70.9386 30.82H75.7266V40H73.1166ZM81.0201 40L84.6201 34.996V35.698L81.1641 30.82H84.3861L87.4101 35.248H87.5901L84.3681 40H81.0201ZM87.1041 40V30.82H89.9481V40H87.1041ZM92.6841 40L89.4621 35.248H89.6421L92.6661 30.82H95.8881L92.4321 35.698V34.996L96.0321 40H92.6841ZM103.82 37.102L105.224 38.92C104.744 39.364 104.168 39.706 103.496 39.946C102.836 40.174 102.122 40.288 101.354 40.288C100.31 40.288 99.3981 40.084 98.6181 39.676C97.8381 39.268 97.2261 38.698 96.7821 37.966C96.3501 37.234 96.1341 36.388 96.1341 35.428C96.1341 34.492 96.3381 33.658 96.7461 32.926C97.1541 32.182 97.7121 31.6 98.4201 31.18C99.1401 30.748 99.9561 30.532 100.868 30.532C101.696 30.532 102.434 30.742 103.082 31.162C103.73 31.57 104.24 32.134 104.612 32.854C104.984 33.574 105.17 34.39 105.17 35.302V35.41H102.326V35.104C102.326 34.324 102.2 33.742 101.948 33.358C101.708 32.974 101.324 32.782 100.796 32.782C100.424 32.782 100.112 32.884 99.8601 33.088C99.6081 33.28 99.4161 33.568 99.2841 33.952C99.1641 34.336 99.1041 34.804 99.1041 35.356C99.1041 35.932 99.1881 36.418 99.3561 36.814C99.5241 37.198 99.7821 37.492 100.13 37.696C100.478 37.9 100.916 38.002 101.444 38.002C101.96 38.002 102.416 37.918 102.812 37.75C103.208 37.582 103.544 37.366 103.82 37.102ZM105.17 36.256H97.8981V34.51H104.882L105.17 35.302V36.256ZM107.077 40V30.82H109.975L112.783 36.67H112.063L114.799 30.82H117.769V40H115.231V34.222L115.483 34.294L113.251 38.974H111.505L109.327 34.42L109.507 34.348V40H107.077ZM125.252 40V30.82H128.186V40H125.252ZM122.93 37.444C121.838 37.444 120.992 37.108 120.392 36.436C119.792 35.764 119.492 34.822 119.492 33.61V30.82H122.426V33.304C122.426 33.856 122.552 34.276 122.804 34.564C123.056 34.852 123.428 34.996 123.92 34.996C124.472 34.996 124.988 34.834 125.468 34.51L125.774 36.598C125.594 36.754 125.342 36.898 125.018 37.03C124.706 37.15 124.364 37.252 123.992 37.336C123.632 37.408 123.278 37.444 122.93 37.444ZM136.882 30.82H139.816L135.91 40.72C135.538 41.644 135.046 42.334 134.434 42.79C133.834 43.258 133.084 43.492 132.184 43.492H130.888V41.08H131.968C132.388 41.08 132.694 41.008 132.886 40.864C133.078 40.732 133.222 40.492 133.318 40.144L133.354 40.018L129.682 30.82H132.688L135.208 38.146H134.344L136.882 30.82ZM140.276 40L143.876 34.996V35.698L140.42 30.82H143.642L146.666 35.248H146.846L143.624 40H140.276ZM146.36 40V30.82H149.204V40H146.36ZM151.94 40L148.718 35.248H148.898L151.922 30.82H155.144L151.688 35.698V34.996L155.288 40H151.94ZM156.525 40V30.82H159.279V36.058L159.153 36.022L162.555 30.82H165.165V40H162.411V34.726L162.537 34.762L159.117 40H156.525ZM167.441 40V30.82H170.375V40H167.441ZM173.147 40V30.82H176.081V40H173.147ZM168.755 36.364V34.006H174.893V36.364H168.755ZM186.511 40H183.973V38.11L183.811 37.966V34.492C183.811 33.928 183.649 33.496 183.325 33.196C183.001 32.896 182.533 32.746 181.921 32.746C181.117 32.746 180.349 33.046 179.617 33.646L178.159 31.9C179.311 30.988 180.661 30.532 182.209 30.532C183.085 30.532 183.841 30.694 184.477 31.018C185.125 31.33 185.623 31.78 185.971 32.368C186.331 32.944 186.511 33.634 186.511 34.438V40ZM181.255 40.288C180.571 40.288 179.977 40.162 179.473 39.91C178.969 39.658 178.573 39.304 178.285 38.848C178.009 38.392 177.871 37.858 177.871 37.246C177.871 36.298 178.255 35.566 179.023 35.05C179.791 34.522 180.865 34.258 182.245 34.258H183.991V36.004H182.407C181.903 36.004 181.501 36.106 181.201 36.31C180.913 36.514 180.769 36.79 180.769 37.138C180.769 37.438 180.883 37.69 181.111 37.894C181.351 38.086 181.657 38.182 182.029 38.182C182.377 38.182 182.695 38.098 182.983 37.93C183.271 37.762 183.505 37.534 183.685 37.246C183.877 36.946 183.985 36.61 184.009 36.238L184.675 36.544C184.675 37.3 184.531 37.96 184.243 38.524C183.967 39.076 183.571 39.508 183.055 39.82C182.551 40.132 181.951 40.288 181.255 40.288ZM191.231 31.396L193.787 35.41L191.231 39.424H187.919L190.619 35.41L187.919 31.396H191.231ZM195.803 31.396L198.359 35.41L195.803 39.424H192.491L195.191 35.41L192.491 31.396H195.803Z" fill="#2D3047"/>
</svg>
